<?xml version="1.0" encoding="utf-8"?>
<!-- Generator: Adobe Illustrator 27.5.0, SVG Export Plug-In . SVG Version: 6.00 Build 0)  -->
<svg version="1.1" id="Layer_1" xmlns="http://www.w3.org/2000/svg" xmlns:xlink="http://www.w3.org/1999/xlink" x="0px" y="0px"
	 viewBox="0 0 4000 2428" style="enable-background:new 0 0 4000 2428;" xml:space="preserve">
<g>
	<rect style="fill-rule:evenodd;clip-rule:evenodd;fill:#2C3459;" width="4000" height="2428"/>
	<path style="fill-rule:evenodd;clip-rule:evenodd;fill:#647B97;" d="M0,2427.998V2428h2260.605
		c-112.193-443.044-471.344-825.445-840.065-1138.583C977.217,912.923,332.205,520.284,330.227,0H0V2427.998z"/>
	<g>
		<defs>
			<path id="SVGID_1_" d="M663.85,1553.446c370.783,232.576,742.055,519.436,945.174,874.554h651.582
				c-112.193-443.044-471.344-825.445-840.065-1138.583C977.217,912.923,332.205,520.284,330.227,0H0v1155.703
				C217.486,1296.53,457.96,1424.297,663.85,1553.446"/>
		</defs>
		<clipPath id="SVGID_00000165931603275651864860000003848764945314768550_">
			<use xlink:href="#SVGID_1_"  style="overflow:visible;"/>
		</clipPath>
		
			<linearGradient id="SVGID_00000054230946269799907710000012039977387523168644_" gradientUnits="userSpaceOnUse" x1="2252.6492" y1="951.6755" x2="-46.4178" y2="1489.0333">
			<stop  offset="0" style="stop-color:#41587B"/>
			<stop  offset="1" style="stop-color:#2C3459"/>
		</linearGradient>
		
			<rect style="clip-path:url(#SVGID_00000165931603275651864860000003848764945314768550_);fill:url(#SVGID_00000054230946269799907710000012039977387523168644_);" width="2260.605" height="2428"/>
	</g>
	<g>
		<defs>
			<path id="SVGID_00000087409349621294458040000003933907020098162615_" d="M1609.024,2428
				c-203.119-355.117-574.391-641.978-945.174-874.554C457.96,1424.297,217.486,1296.53,0,1155.703v195.86
				c62.33,36.551,123.203,72.888,181.313,109.337c402.457,252.447,805.436,568.867,993.366,967.101H1609.024z"/>
		</defs>
		<clipPath id="SVGID_00000105404908813322242200000007490945321519056312_">
			<use xlink:href="#SVGID_00000087409349621294458040000003933907020098162615_"  style="overflow:visible;"/>
		</clipPath>
		
			<linearGradient id="SVGID_00000098939722742892575990000016352334906603688081_" gradientUnits="userSpaceOnUse" x1="2096.5669" y1="1683.0802" x2="403.1827" y2="1825.637">
			<stop  offset="0" style="stop-color:#647B97"/>
			<stop  offset="1" style="stop-color:#28466E"/>
		</linearGradient>
		
			<rect y="1155.703" style="clip-path:url(#SVGID_00000105404908813322242200000007490945321519056312_);fill:url(#SVGID_00000098939722742892575990000016352334906603688081_);" width="1609.024" height="1272.297"/>
	</g>
	<g>
		<defs>
			<path id="SVGID_00000078729294794954068210000000066391528601295264_" d="M1174.679,2428
				c-187.93-398.233-590.909-714.654-993.366-967.101C123.203,1424.45,62.33,1388.113,0,1351.562V2428H1174.679z"/>
		</defs>
		<clipPath id="SVGID_00000145763780229493291320000013840476941585208231_">
			<use xlink:href="#SVGID_00000078729294794954068210000000066391528601295264_"  style="overflow:visible;"/>
		</clipPath>
		
			<linearGradient id="SVGID_00000160155445876300813200000002033169791234715785_" gradientUnits="userSpaceOnUse" x1="1494.6412" y1="1669.5848" x2="50.7797" y2="2020.0009">
			<stop  offset="0" style="stop-color:#D7C3B6"/>
			<stop  offset="1" style="stop-color:#5A6A87"/>
		</linearGradient>
		
			<rect y="1351.562" style="clip-path:url(#SVGID_00000145763780229493291320000013840476941585208231_);fill:url(#SVGID_00000160155445876300813200000002033169791234715785_);" width="1174.679" height="1076.438"/>
	</g>
	<g>
		<defs>
			<path id="SVGID_00000111173698587710338340000007706246929264626077_" d="M0,2427.998V2428h534.199
				C402.784,2216.261,212.21,2029.384,0,1864.239V2427.998z"/>
		</defs>
		<clipPath id="SVGID_00000160885692930168421670000001590713395296955796_">
			<use xlink:href="#SVGID_00000111173698587710338340000007706246929264626077_"  style="overflow:visible;"/>
		</clipPath>
		
			<linearGradient id="SVGID_00000009554069494706697800000007555333041781041071_" gradientUnits="userSpaceOnUse" x1="1072.8131" y1="1956.3662" x2="-546.3431" y2="2337.6929">
			<stop  offset="0" style="stop-color:#F4EEE6"/>
			<stop  offset="1" style="stop-color:#7F8398"/>
		</linearGradient>
		
			<rect y="1864.239" style="clip-path:url(#SVGID_00000160885692930168421670000001590713395296955796_);fill:url(#SVGID_00000009554069494706697800000007555333041781041071_);" width="534.199" height="563.761"/>
	</g>
	<path style="fill-rule:evenodd;clip-rule:evenodd;fill:#647B97;" d="M4000,0.002V0H1739.393
		c112.195,443.044,471.344,825.445,840.064,1138.583C3022.781,1515.077,3667.793,1907.716,3669.773,2428H4000V0.002z"/>
	<g>
		<defs>
			<path id="SVGID_00000137117865103756743070000015248477608134192560_" d="M3336.148,874.554
				C2965.366,641.978,2594.094,355.118,2390.974,0h-651.582c112.195,443.044,471.344,825.445,840.064,1138.583
				C3022.781,1515.077,3667.793,1907.716,3669.773,2428H4000V1272.297C3782.514,1131.47,3542.039,1003.701,3336.148,874.554"/>
		</defs>
		<clipPath id="SVGID_00000030450997446492463510000007785447658441768377_">
			<use xlink:href="#SVGID_00000137117865103756743070000015248477608134192560_"  style="overflow:visible;"/>
		</clipPath>
		
			<linearGradient id="SVGID_00000129892276029299734950000008664833738382918579_" gradientUnits="userSpaceOnUse" x1="1747.369" y1="1476.3417" x2="4046.3972" y2="938.9486">
			<stop  offset="0" style="stop-color:#41587B"/>
			<stop  offset="1" style="stop-color:#2C3459"/>
		</linearGradient>
		
			<rect x="1739.393" style="clip-path:url(#SVGID_00000030450997446492463510000007785447658441768377_);fill:url(#SVGID_00000129892276029299734950000008664833738382918579_);" width="2260.607" height="2428"/>
	</g>
	<g>
		<defs>
			<path id="SVGID_00000152257422960292451770000006431259468543413430_" d="M2390.974,0
				c203.119,355.118,574.391,641.978,945.174,874.554c205.89,129.147,446.365,256.917,663.852,397.744v-195.858
				c-62.332-36.553-123.205-72.891-181.313-109.34C3416.228,714.654,3013.251,398.233,2825.321,0H2390.974z"/>
		</defs>
		<clipPath id="SVGID_00000129905668126028993100000003291271089050541503_">
			<use xlink:href="#SVGID_00000152257422960292451770000006431259468543413430_"  style="overflow:visible;"/>
		</clipPath>
		
			<linearGradient id="SVGID_00000173146519158542654900000013093974661858993573_" gradientUnits="userSpaceOnUse" x1="1903.4121" y1="744.8956" x2="3596.7612" y2="602.3757">
			<stop  offset="0" style="stop-color:#647B97"/>
			<stop  offset="1" style="stop-color:#28466E"/>
		</linearGradient>
		
			<rect x="2390.974" style="clip-path:url(#SVGID_00000129905668126028993100000003291271089050541503_);fill:url(#SVGID_00000173146519158542654900000013093974661858993573_);" width="1609.026" height="1272.297"/>
	</g>
	<g>
		<defs>
			<path id="SVGID_00000059307686595566766040000014793428047662029484_" d="M2825.321,0
				c187.93,398.233,590.907,714.654,993.366,967.099c58.109,36.449,118.982,72.788,181.313,109.34V0H2825.321z"/>
		</defs>
		<clipPath id="SVGID_00000074405306009984012810000010537585604539912876_">
			<use xlink:href="#SVGID_00000059307686595566766040000014793428047662029484_"  style="overflow:visible;"/>
		</clipPath>
		
			<linearGradient id="SVGID_00000060013991993108990990000008352581577679038338_" gradientUnits="userSpaceOnUse" x1="2505.3914" y1="758.4306" x2="3949.2544" y2="407.9785">
			<stop  offset="0" style="stop-color:#D7C3B6"/>
			<stop  offset="1" style="stop-color:#5A6A87"/>
		</linearGradient>
		
			<rect x="2825.321" style="clip-path:url(#SVGID_00000074405306009984012810000010537585604539912876_);fill:url(#SVGID_00000060013991993108990990000008352581577679038338_);" width="1174.679" height="1076.439"/>
	</g>
	<g>
		<defs>
			<path id="SVGID_00000108293790340465109920000011428790917473131691_" d="M4000,0.002V0h-534.201
				C3597.216,211.739,3787.79,398.616,4000,563.761V0.002z"/>
		</defs>
		<clipPath id="SVGID_00000056423064664764643640000007223029130545671598_">
			<use xlink:href="#SVGID_00000108293790340465109920000011428790917473131691_"  style="overflow:visible;"/>
		</clipPath>
		
			<linearGradient id="SVGID_00000053511669944943973030000017078528601652790421_" gradientUnits="userSpaceOnUse" x1="2927.2122" y1="471.645" x2="4546.3667" y2="90.2838">
			<stop  offset="0" style="stop-color:#F4EEE6"/>
			<stop  offset="1" style="stop-color:#7F8398"/>
		</linearGradient>
		
			<rect x="3465.799" style="clip-path:url(#SVGID_00000056423064664764643640000007223029130545671598_);fill:url(#SVGID_00000053511669944943973030000017078528601652790421_);" width="534.201" height="563.761"/>
	</g>
</g>
</svg>
